<svg width="2318" height="300" viewBox="0 0 2318 300" fill="none" xmlns="http://www.w3.org/2000/svg">
                <g clip-path="url(#clip0_20639_33052)">
                <path d="M234.41 103.1C234.41 74.63 221.29 48.86 200.09 30.2C178.89 11.54 149.6 0 117.24 0C84.88 0 55.59 11.54 34.39 30.2C13.18 48.85 0.0699601 74.63 0.0699601 103.1C0.0699601 103.1 -6.77004 185.54 117.24 300C241.25 185.54 234.41 103.1 234.41 103.1Z" fill="#1454FF"></path>
                <path d="M1098.24 98.28C1074.57 98.28 1052.87 106.92 1037.13 122.6C1021.42 138.26 1012.76 159.83 1012.76 183.34C1012.76 206.85 1021.42 228.42 1037.13 244.08C1052.87 259.76 1074.57 268.4 1098.24 268.4C1121.91 268.4 1143.61 259.76 1159.35 244.08C1175.06 228.43 1183.72 206.86 1183.72 183.34C1183.72 159.82 1175.06 138.25 1159.35 122.6C1143.61 106.92 1121.91 98.28 1098.24 98.28ZM1130.05 218.87C1121.82 228.1 1110.52 233.18 1098.24 233.18C1085.96 233.18 1074.66 228.1 1066.43 218.87C1058.22 209.66 1053.7 197.04 1053.7 183.33C1053.7 169.62 1058.22 156.99 1066.43 147.79C1074.66 138.56 1085.96 133.48 1098.23 133.48C1110.5 133.48 1121.8 138.56 1130.04 147.79C1138.25 156.99 1142.77 169.61 1142.77 183.33C1142.77 197.05 1138.25 209.67 1130.04 218.87H1130.05Z" fill="black"></path>
                <path d="M1023.08 265.7L923.97 150.52L1021.04 44.76H962.76L876.13 138.86V138.34V44.76H831.28V265.7H876.13V161.3L966.12 265.7H1023.08Z" fill="black"></path>
                <path d="M1678.69 265.72L1642.81 215.69L1606.6 265.72H1557.09L1617.89 181.78L1559.75 101.13H1609.25L1642.81 147.54L1676.37 101.13H1725.54L1667.4 181.45L1728.2 265.72H1678.69Z" fill="black"></path>
                <path d="M1561.92 168.66C1554.6 127.94 1519.67 98.3799 1478.86 98.3799C1432.21 98.3799 1394.26 136.47 1394.26 183.29C1394.26 230.11 1432.21 268.49 1478.86 268.49C1508.21 268.49 1536.78 253.99 1551.63 232.38L1518.55 215.95C1508.65 225.88 1493.78 231.94 1478.86 231.94C1456.77 231.94 1439.43 218.84 1434.72 199H1561.94L1562.24 196.56C1563.64 185.34 1563.53 176.45 1561.92 168.66ZM1434.85 166.66C1439.4 150.65 1454.38 134.62 1478.56 134.62C1502.74 134.62 1517.43 150.65 1521.96 166.66H1434.85Z" fill="black"></path>
                <path d="M1330.71 39.98V116.63C1330.71 116.63 1313.72 98.44 1284.51 98.44C1259.65 98.44 1239.25 106.22 1223.89 121.56C1207.88 137.53 1199.07 159.49 1199.07 183.39C1199.07 207.29 1207.88 229.3 1223.89 245.27C1239.3 260.61 1259.7 268.39 1284.51 268.39C1310.57 268.39 1330.71 252.71 1330.71 252.71L1333.67 265.69H1375.57V29L1330.71 39.98ZM1330.34 183.44V212.61C1328.41 216.5 1323.39 220.81 1322.71 221.42C1313.68 229.4 1302.97 234.13 1287.58 233.32C1274.4 232.65 1263.28 227.72 1255.39 219.03C1246.99 209.8 1242.39 197.19 1242.39 183.49V183.4C1242.39 169.7 1246.99 157.09 1255.39 147.86C1263.28 139.17 1274.4 134.23 1287.58 133.57C1302.97 132.76 1313.68 137.49 1322.71 145.47C1323.39 146.09 1328.41 150.39 1330.34 154.28V183.45V183.44Z" fill="black"></path>
                <path d="M1854.57 175.34H1951.57V133.01H1854.57V87.4H1958.97V44.78H1811.08V265.7H1960.46V223.06H1854.57V175.34Z" fill="black"></path>
                <path d="M1977.2 87.4H2043.6V265.7H2087.06V87.4H2153.16V44.77H1977.2V87.4Z" fill="black"></path>
                <path d="M2317.05 87.39V44.76H2172.12V265.7H2215.59V179.87H2314.08V137.23H2215.59V87.39H2317.05Z" fill="black"></path>
                <path d="M385.28 114.61C380.89 124.57 373.79 135.04 364.86 144.53C355.63 154.49 344.4 163.2 332.91 170.07L312.95 146.84C327.26 138.69 340.82 127.36 351.01 113.01C361.27 99.0299 367.65 82.6499 367.65 64.2199V42.7299H400.86V63.7499C400.86 81.8499 407.54 97.2499 417.5 109.77C427.53 122.8 441.05 132.5 454.33 138.91L436.43 163.19C411.85 149.84 395.78 134 385.28 114.6M367.64 181.57H501.85V279.5H367.64V181.57ZM399.06 252.91H470.14V208.44H399.06V252.91ZM501.86 172.4H470.14V37.4399H501.86V91.0599H538.92V117.94H501.86V172.39V172.4Z" fill="#1454FF"></path>
                <path d="M628.8 144.29C619.87 135.82 612.95 126.84 608.8 118.67C604.98 127.94 598.1 137.87 589.17 147.33C579.94 156.83 568.95 166.53 556.69 173.9L537.03 150.15C552.61 139.89 566.65 128.19 576.12 114.61C585.58 101.29 591.43 85.9499 591.43 68.6299V42.74H625.21V68.12C625.21 87.25 631.36 102.13 641.32 114.09C650.75 126.34 664.33 135.61 677.89 142.48L659.99 167.26C648.73 161.12 637.74 153.18 628.81 144.29M714.18 271.33C702.89 280.78 687.31 286.36 668.91 286.36C650.51 286.36 635.17 280.78 624.17 271.33C612.94 261.33 606.57 247.56 606.57 230.44C606.57 213.32 612.95 200.27 624.17 190.29C635.17 180.31 650.51 174.46 668.91 174.46C687.31 174.46 702.89 180.3 714.18 190.29C725.14 200.27 731.79 214.02 731.79 230.44C731.79 246.86 725.15 261.33 714.18 271.33ZM691.66 209.4C685.78 204.37 678.14 201.25 668.91 201.25C650.51 201.25 637.73 213.03 637.73 230.44C637.73 247.85 650.52 259.85 668.91 259.85C687.3 259.85 700.63 248.03 700.63 230.44C700.63 222.05 697.08 214.57 691.66 209.4ZM703.95 107.94H659.21V79.8499H703.95V37.45H735.63V173.71H703.95V107.95V107.94Z" fill="#1454FF"></path>
                </g>
                <defs>
                <clipPath id="clip0_20639_33052">
                <rect width="2317.05" height="300" fill="white"></rect>
                </clipPath>
                </defs>
                </svg>